<?xml version="1.0" encoding="UTF-8" standalone="no"?>
<!-- Created with Inkscape (http://www.inkscape.org/) -->

<svg
   width="1000"
   height="116.01595"
   version="1.1"
   viewBox="0 0 999.99998 116.01596"
   id="svg6"
   sodipodi:docname="Lenovo_chinese.svg"
   inkscape:version="1.4.2 (f4327f4, 2025-05-13)"
   xmlns:inkscape="http://www.inkscape.org/namespaces/inkscape"
   xmlns:sodipodi="http://sodipodi.sourceforge.net/DTD/sodipodi-0.dtd"
   xmlns="http://www.w3.org/2000/svg"
   xmlns:svg="http://www.w3.org/2000/svg">
  <defs
     id="defs6" />
  <sodipodi:namedview
     id="namedview6"
     pagecolor="#ffffff"
     bordercolor="#000000"
     borderopacity="0.25"
     inkscape:showpageshadow="2"
     inkscape:pageopacity="0.0"
     inkscape:pagecheckerboard="0"
     inkscape:deskcolor="#d1d1d1"
     inkscape:zoom="0.5"
     inkscape:cx="598"
     inkscape:cy="55"
     inkscape:window-width="1366"
     inkscape:window-height="705"
     inkscape:window-x="-8"
     inkscape:window-y="-8"
     inkscape:window-maximized="1"
     inkscape:current-layer="svg6" />
  <path
     id="path3-4"
     clip-path="none"
     style="fill:#2569a7;fill-opacity:1;fill-rule:nonzero;stroke:none"
     d="M -19.377901 -60.43582 C -19.025901 -60.54682 1.5872809 -66.928997 2.2132809 -67.122997 L 2.2132809 -57.620103 C 1.8692809 -57.517103 -18.759901 -51.129008 -19.377901 -50.939008 L -19.377901 -60.43582 z M -12.774847 -37.787236 C -12.774847 -46.223237 -9.9078478 -51.948466 -4.9088478 -53.496466 C -2.8398478 -54.134466 -1.1788014 -53.981355 0.019198596 -53.025355 C 2.3871986 -51.129355 2.7122262 -46.527163 2.6922262 -43.948163 C 2.6422262 -37.177163 1.5363817 -33.735213 1.3103817 -33.112213 C 1.1353817 -33.053213 -1.9786233 -31.614239 -2.7166233 -31.367239 C -2.0956233 -32.785239 0.067183593 -37.777412 -0.10081641 -41.443412 C -0.17381641 -42.955412 -0.31479257 -43.832262 -0.90079257 -44.657262 C -1.3357926 -45.268262 -2.1369842 -45.102425 -2.1369842 -45.102425 C -2.1369842 -45.102425 -5.8679592 -28.387437 -5.9239592 -28.067437 C -6.1919592 -27.943437 -6.7786955 -27.791338 -7.4796954 -27.791338 C -8.5496954 -27.791338 -9.455705 -28.079446 -10.181705 -28.650446 C -11.902705 -30.025446 -12.774847 -33.101236 -12.774847 -37.787236 z M -12.774103 16.079929 C -12.774103 7.3529294 -9.8711266 1.447885 -4.8111266 -0.12311502 C -2.9921266 -0.68711502 -1.4788275 -0.49297156 -0.28882752 0.44002844 C 1.6631725 2.0040284 2.6918547 5.5738396 2.6918547 10.772839 C 2.6918547 19.507839 -0.2101221 25.412911 -5.2711222 26.977911 C -7.0901222 27.542911 -8.6111321 27.348929 -9.7841321 26.411929 C -11.742132 24.852929 -12.774103 21.284929 -12.774103 16.079929 z M -12.774103 67.98562 C -12.774103 59.24862 -9.8710119 53.341683 -4.8100119 51.775683 C -2.9890119 51.215684 -1.4791991 51.396719 -0.28919909 52.345719 C 1.6628009 53.896719 2.6918547 57.472826 2.6918547 62.670827 C 2.6918547 71.402827 -0.21000744 77.310709 -5.2700075 78.876709 C -7.0900075 79.444709 -8.6111321 79.247511 -9.7841321 78.309511 C -11.742132 76.753511 -12.774103 73.17762 -12.774103 67.98562 z M -12.753667 -12.065081 C -12.753667 -16.635081 -12.203541 -21.035205 -11.618541 -24.377205 C -11.490541 -24.423205 2.0053501 -28.841247 2.2463501 -28.919247 L 2.2463501 -19.329186 C 2.0753501 -19.272186 -9.9966664 -15.312177 -9.9966664 -15.312177 C -10.252666 -11.931177 -9.8706275 -10.950281 -9.3386275 -10.512281 C -9.0236275 -10.258281 -8.6445514 -10.06818 -8.1845514 -10.20618 L 2.2463501 -13.597204 L 2.2463501 -4.0071426 L -8.9306508 -0.38623964 C -9.5676508 -0.30623964 -10.049621 -0.48594487 -10.501621 -0.85694487 C -11.993621 -2.0899449 -12.753667 -5.8900809 -12.753667 -12.065081 z M -12.295901 28.102981 C -11.756901 28.166981 1.7822809 29.87296 2.2132809 29.92296 L 2.2132809 44.151151 C 2.0052809 44.308151 -11.549901 54.403289 -12.295901 54.956289 L -12.295901 45.700302 C -12.078901 45.539302 -2.1217501 38.091176 -2.1217501 38.091176 C -2.1217501 38.091176 -11.869901 36.881097 -12.295901 36.831097 L -12.295901 28.102981 z M -10.447744 -39.027449 C -10.447744 -37.423449 -9.8787658 -36.628113 -9.4047658 -36.255113 C -9.0157658 -35.940113 -8.3449656 -35.64633 -7.4369656 -35.83833 L -3.2397846 -44.818218 L -7.4938149 -43.666389 C -9.3438149 -43.096389 -10.447744 -41.360449 -10.447744 -39.027449 z M -10.062062 14.729034 C -10.062062 15.786034 -9.7760618 16.526932 -9.1970618 16.990932 C -8.3550618 17.664932 -7.0471266 17.652985 -4.8111266 16.964985 C -1.3631266 15.894985 -0.02093026 14.537978 -0.02093026 12.126978 C -0.02093026 11.068978 -0.30598973 10.32889 -0.89298973 9.8658904 C -1.7279897 9.1958904 -3.0351222 9.2050814 -5.2711222 9.8950814 C -8.7151222 10.967081 -10.062062 12.315034 -10.062062 14.729034 z M -10.060947 66.625805 C -10.060947 67.680805 -9.7760618 68.426839 -9.1970618 68.897839 C -8.3550618 69.560839 -7.0470119 69.548513 -4.8100119 68.858513 C -1.3630119 67.794513 -0.02093026 66.437858 -0.02093026 64.031858 C -0.02093026 62.972858 -0.30598974 62.229689 -0.89298973 61.764689 C -1.7269898 61.094689 -3.0350075 61.103853 -5.2700075 61.791853 C -8.7150075 62.864852 -10.060947 64.220805 -10.060947 66.625805 z "
     transform="matrix(0,5.2565043,4.8174059,0,323.35872,101.86002)" />
  <path
     id="path15"
     clip-path="none"
     style="fill:#2569a7;fill-opacity:1;fill-rule:nonzero;stroke:none"
     d="M -0.94500838 3.2118731 C -0.61400838 2.5568731 -0.00012246732 4.9819344e-05 -0.00012246732 4.9819344e-05 C 1.2578775 0.77204982 2.8809807 1.2029632 2.8809807 1.2029632 C 2.8999807 0.58696317 2.8300765 -2.2038723 2.8300765 -2.2038723 L 5.0509114 -2.900808 C 4.9379114 -0.42080796 5.0048375 2.4841247 5.0048375 2.4841247 C 5.3848375 2.4541247 8.1099935 1.4579792 8.1099935 1.4579792 C 8.0809935 -3.4220208 7.9970382 -4.0611511 7.9970382 -4.0611511 L 10.353122 -4.7941701 C 10.184122 -2.0711701 10.279181 0.44480747 10.279181 0.44480747 C 11.268181 0.096807469 12.768999 -1.0788968 13.947999 -2.5938968 C 15.126999 -4.1058968 15.780178 -7.1010716 15.780178 -7.1010716 C 16.598178 -6.3250716 17.922985 -5.7570683 17.922985 -5.7570683 C 16.381985 -0.56106834 12.702146 2.1841058 12.702146 2.1841058 C 16.252146 2.8361058 18.048945 6.4618068 18.048945 6.4618068 C 17.435945 6.9668068 15.861179 9.2300887 15.861179 9.2300887 C 15.247179 5.3580887 10.299989 4.546146 10.299989 4.546146 C 10.185989 7.130146 10.360925 10.276911 10.360925 10.276911 L 8.0200751 11.001822 C 8.1510751 7.3538215 8.0810115 4.7281845 8.0810115 4.7281845 C 7.0010115 5.0191845 5.0100394 5.8151446 5.0100394 5.8151446 C 4.9290394 9.0021446 5.0590858 11.204942 5.0590858 11.204942 L 2.8200443 11.890121 C 2.9000443 10.543121 2.8668613 8.6150501 2.8668613 8.6150501 C 1.9148613 9.5940501 0.090910584 11.264946 0.090910584 11.264946 C 0.064910584 10.304946 -0.86214973 8.4788253 -0.86214973 8.4788253 C 2.3868503 6.1698253 2.8750357 4.6519635 2.8750357 4.6519635 C 2.6680357 4.5579635 -0.94500838 3.2118731 -0.94500838 3.2118731 z M -0.75179538 24.968104 C -0.73279538 23.949104 -0.73284564 21.598162 -0.73284564 21.598162 C 0.42815436 21.374162 1.6890051 20.957987 1.6890051 20.957987 C 1.7600051 18.746987 1.6622525 16.162956 1.6622525 16.162956 L 3.8912618 15.471291 C 3.7902618 17.354291 3.834041 19.973196 3.834041 19.973196 C 6.517041 17.239196 7.6782367 13.416162 7.6782367 13.416162 C 8.5242367 14.563162 9.86303 14.861118 9.86303 14.861118 C 8.55603 17.482118 7.1190337 19.315181 7.1190337 19.315181 C 9.4460337 18.758181 10.987009 17.999153 10.987009 17.999153 L 10.987009 21.349228 C 9.0610095 21.782228 6.6111064 22.582954 6.6111064 22.582954 C 7.0851064 23.205954 8.3871798 23.275024 8.3871798 23.275024 C 7.4171798 24.723024 7.065157 25.926948 7.065157 25.926948 C 5.140157 25.122948 3.857078 23.598153 3.857078 23.598153 C 3.792078 24.164153 3.8912618 26.301971 3.8912618 26.301971 L 1.6232384 26.991204 C 1.6892384 25.964204 1.6890051 24.121159 1.6890051 24.121159 C 0.93000509 24.350159 -0.75179538 24.968104 -0.75179538 24.968104 z M -0.20708332 -12.598714 L 2.0260132 -13.291595 C 1.9710132 -12.946595 1.9710218 -11.9034 1.9710218 -11.9034 C 5.5110218 -12.9774 12.809157 -15.283477 12.809157 -15.283477 L 13.010916 -16.766543 C 14.196916 -16.387543 15.397096 -16.637616 15.397096 -16.637616 C 14.900096 -14.645616 14.144927 -9.8486765 14.144927 -9.8486765 C 15.965927 -10.294677 17.81003 -11.081592 17.81003 -11.081592 L 17.81003 -7.7927367 C 12.40203 -6.5977367 1.9279204 -2.9847321 1.9279204 -2.9847321 C 1.8949204 -2.8177321 1.9509573 -2.0104818 1.9509573 -2.0104818 L -0.1981658 -1.3167896 C 0.020834201 -6.6947896 -0.20708332 -12.598714 -0.20708332 -12.598714 z M 0.061557069 28.83713 L 0.10131436 28.825373 C 3.6713144 27.893373 10.641626 25.57833 10.717626 25.55233 L 10.789338 25.527193 L 10.779677 25.613144 C 10.588677 28.247144 10.775677 38.007387 10.779677 38.098387 L 10.779677 38.147445 L 10.737319 38.159202 C 8.0583188 38.593202 0.21252569 41.397326 0.13252569 41.423326 L 0.061557069 41.451301 L 0.061557069 41.370214 C 0.17755707 38.978214 0.061557069 28.982484 0.061557069 28.878484 L 0.061557069 28.83713 z M 1.8948513 -8.8805077 L 1.8948513 -5.9954617 L 4.062181 -6.6607737 L 4.062181 -9.5454143 L 1.8948513 -8.8805077 z M 2.1114728 31.390128 L 2.1114728 37.481322 L 3.4665647 37.078323 L 3.4665647 30.985103 L 2.1114728 31.390128 z M 4.7915601 30.537102 L 4.7915601 36.625457 L 6.0303527 36.263407 L 6.0303527 30.171403 L 4.7915601 30.537102 z M 5.9891092 -10.140587 L 5.9891092 -7.2527028 L 7.8521284 -7.8304417 L 7.8521284 -10.717515 L 5.9891092 -10.140587 z M 7.3546049 29.771243 L 7.3546049 35.860409 L 8.7163851 35.456195 L 8.7163851 29.368245 L 7.3546049 29.771243 z M 9.789832 -11.316742 L 9.789832 -8.4256142 L 11.983171 -9.1067381 C 12.157171 -10.002738 12.301075 -11.006414 12.426075 -12.128414 L 9.789832 -11.316742 z M 11.182452 15.022479 C 13.658452 13.759479 15.89462 11.3063 15.89462 11.3063 C 16.00862 12.2213 17.002622 13.791591 17.002622 13.791591 C 15.561622 15.784591 11.978712 18.00645 11.978712 18.00645 C 11.665712 16.14645 11.182452 15.022479 11.182452 15.022479 z M 11.236329 35.61188 C 12.297329 33.57688 12.441309 32.333971 12.441309 32.333971 C 14.748309 34.319971 17.264574 35.126985 17.264574 35.126985 C 16.690574 36.071985 15.770518 38.352187 15.770518 38.352187 C 13.996518 37.514187 11.236329 35.61188 11.236329 35.61188 z M 11.769522 19.104357 C 13.530522 18.758357 14.779686 18.118521 16.076686 17.832521 C 17.285686 17.565521 17.614396 18.118701 17.716396 20.279701 C 17.818396 22.449701 17.933634 26.965354 17.663634 28.958354 C 17.386634 30.947354 16.085551 31.8356 15.861551 32.0076 C 15.645551 32.1666 14.342599 33.116453 14.342599 33.116453 C 14.107599 31.339453 13.404401 30.037611 13.404401 30.037611 C 13.652401 29.905611 15.174568 29.51665 15.359568 28.06965 C 15.547568 26.62565 15.461491 23.583429 15.381491 22.394429 C 15.321491 21.215429 14.779437 21.481355 14.211437 21.657355 C 13.643437 21.827355 11.769522 22.466595 11.769522 22.466595 C 11.806522 20.623595 11.769522 19.104357 11.769522 19.104357 z M 11.982056 29.473251 C 11.876941 24.763901 13.723574 22.822158 13.723574 22.822158 C 13.789574 24.641158 14.688525 26.057496 14.688525 26.057496 C 12.136525 28.188496 12.218742 31.700283 12.218742 31.700283 L 12.157434 31.663389 C 12.051691 30.87531 11.997072 30.14597 11.982056 29.473251 z "
     transform="matrix(0,5.2565043,4.8174059,0,800.31226,18.9108)" />
</svg>
